<svg xmlns="http://www.w3.org/2000/svg" viewBox="0 0 192 192">
  <rect width="192" height="192" rx="38" fill="#04080f"/>
  <path d="M30 70 L30 34 L66 34" stroke="#00c8ff" stroke-width="7" fill="none" stroke-linecap="round" stroke-linejoin="round"/>
  <path d="M126 34 L162 34 L162 70" stroke="#00c8ff" stroke-width="7" fill="none" stroke-linecap="round" stroke-linejoin="round"/>
  <path d="M30 122 L30 158 L66 158" stroke="#00c8ff" stroke-width="7" fill="none" stroke-linecap="round" stroke-linejoin="round"/>
  <path d="M126 158 L162 158 L162 122" stroke="#00c8ff" stroke-width="7" fill="none" stroke-linecap="round" stroke-linejoin="round"/>
  <circle cx="75" cy="84"  r="5.5" fill="#00c8ff"/>
  <circle cx="117" cy="84" r="5.5" fill="#00c8ff"/>
  <circle cx="96"  cy="103" r="4"  fill="#00c8ff" opacity=".8"/>
  <circle cx="81"  cy="118" r="3.5" fill="#00c8ff" opacity=".7"/>
  <circle cx="111" cy="118" r="3.5" fill="#00c8ff" opacity=".7"/>
  <line x1="75"  y1="84"  x2="117" y2="84"  stroke="#00c8ff" stroke-width="1.5" opacity=".35"/>
  <line x1="75"  y1="84"  x2="96"  y2="103" stroke="#00c8ff" stroke-width="1.5" opacity=".35"/>
  <line x1="117" y1="84"  x2="96"  y2="103" stroke="#00c8ff" stroke-width="1.5" opacity=".35"/>
  <line x1="96"  y1="103" x2="81"  y2="118" stroke="#00c8ff" stroke-width="1.5" opacity=".35"/>
  <line x1="96"  y1="103" x2="111" y2="118" stroke="#00c8ff" stroke-width="1.5" opacity=".35"/>
  <line x1="81"  y1="118" x2="111" y2="118" stroke="#00c8ff" stroke-width="1.5" opacity=".35"/>
  <line x1="75"  y1="84"  x2="81"  y2="118" stroke="#00c8ff" stroke-width="1.5" opacity=".25"/>
  <line x1="117" y1="84"  x2="111" y2="118" stroke="#00c8ff" stroke-width="1.5" opacity=".25"/>
</svg>
